<svg xmlns="http://www.w3.org/2000/svg" width="13" height="13" viewBox="0 0 13 13">
    <g fill="none" fill-rule="evenodd">
        <g fill="#FFF" fill-rule="nonzero">
            <path d="M943.161 128.5l4.492-4.492c.463-.462.463-1.2 0-1.661-.462-.463-1.199-.463-1.66 0l-4.493 4.492-4.492-4.492c-.462-.463-1.2-.463-1.661 0-.463.462-.463 1.199 0 1.66l4.492 4.493-4.492 4.492c-.463.462-.463 1.2 0 1.661.23.231.52.347.823.347.303 0 .607-.116.823-.347l4.507-4.492 4.492 4.492c.231.231.535.347.824.347.303 0 .606-.116.823-.347.462-.462.462-1.199 0-1.66l-4.478-4.493z" transform="translate(-935 -122)"/>
        </g>
    </g>
</svg>
