<svg xmlns="http://www.w3.org/2000/svg" width="12" height="22" viewBox="0 0 12 22">
    <g fill="none" fill-rule="evenodd">
        <g fill="#9B9B9B" fill-rule="nonzero" stroke="#9B9B9B" stroke-width=".35">
            <path d="M330.477 1108.53c-.15-1.991-1.808-3.53-3.805-3.53-1.996 0-3.655 1.539-3.805 3.53v9.356c0 1.31 1.062 2.371 2.372 2.371 1.31 0 2.371-1.062 2.371-2.371v-5.174h-.862v5.174c0 .833-.676 1.509-1.51 1.509-.833 0-1.508-.676-1.508-1.51v-9.356c.13-1.528 1.409-2.701 2.942-2.701 1.534 0 2.812 1.173 2.943 2.701v11.232c0 2.417-1.96 4.377-4.376 4.377-2.417 0-4.377-1.96-4.377-4.377v-7.05H320v7.05c0 2.894 2.345 5.239 5.239 5.239 2.893 0 5.238-2.345 5.238-5.239v-11.232z" transform="translate(-319 -1104) matrix(-1 0 0 1 650.477 0)"/>
        </g>
    </g>
</svg>
