<svg xmlns="http://www.w3.org/2000/svg" width="23" height="19" viewBox="0 0 23 19">
    <g fill="none" fill-rule="evenodd">
        <g fill="#FFF" fill-rule="nonzero">
            <path d="M526.893 135.048l-9.353-15.134c-.754-1.217-1.979-1.22-2.733 0l-9.353 15.134c-1.011 1.635-.277 2.952 1.638 2.952h18.165c1.91 0 2.645-1.32 1.637-2.952h-.001zm-10.72.35c-.48 0-.867-.388-.867-.867 0-.48.388-.868.867-.868.48 0 .868.388.868.868s-.388.867-.868.867zm.868-4.334c0 .472-.388.865-.868.865-.482 0-.867-.388-.867-.865v-5.21c0-.471.388-.864.867-.864.483 0 .868.388.868.865v5.209z" transform="translate(-505 -119)"/>
        </g>
    </g>
</svg>
